<svg id="free-icon-calculator-988118_2" data-name="free-icon-calculator-988118 2" xmlns="http://www.w3.org/2000/svg" width="25" height="25" viewBox="0 0 25 29.25">
  <defs>
    <style>
      .cls-1 {
        fill: #d9dde1;
      }

      .cls-1, .cls-2, .cls-3, .cls-4, .cls-5, .cls-7 {
        fill-rule: evenodd;
      }

      .cls-2 {
        fill: #232323;
        opacity: 0.9;
      }

      .cls-3, .cls-6 {
        fill: #0063b0;
      }

      .cls-4 {
        fill: #ee2849;
      }

      .cls-5 {
        fill: #ffc500;
      }

      .cls-7 {
        fill: #f2cba7;
      }
    </style>
  </defs>
  <path id="Vector" class="cls-1" d="M4061.28,2471.71H4063v1.52a0.87,0.87,0,1,1-1.72,0v-1.52Z" transform="translate(-4038 -2445)"/>
  <path id="Vector-2" data-name="Vector" class="cls-2" d="M4040.59,2445h18.96v27.22h-18.96V2445Z" transform="translate(-4038 -2445)"/>
  <g id="Group">
    <path id="Vector-3" data-name="Vector" class="cls-3" d="M4042.31,2467.18h2.59v3.02h-2.59v-3.02Z" transform="translate(-4038 -2445)"/>
    <path id="Vector-4" data-name="Vector" class="cls-3" d="M4046.62,2467.18h2.59v3.02h-2.59v-3.02Z" transform="translate(-4038 -2445)"/>
    <path id="Vector-5" data-name="Vector" class="cls-3" d="M4050.93,2467.18h2.59v3.02h-2.59v-3.02Z" transform="translate(-4038 -2445)"/>
    <path id="Vector-6" data-name="Vector" class="cls-3" d="M4042.31,2462.14h2.59v3.02h-2.59v-3.02Z" transform="translate(-4038 -2445)"/>
    <path id="Vector-7" data-name="Vector" class="cls-3" d="M4046.62,2462.14h2.59v3.02h-2.59v-3.02Z" transform="translate(-4038 -2445)"/>
    <path id="Vector-8" data-name="Vector" class="cls-3" d="M4050.93,2462.14h2.59v3.02h-2.59v-3.02Z" transform="translate(-4038 -2445)"/>
    <path id="Vector-9" data-name="Vector" class="cls-3" d="M4042.31,2457.1h2.59v3.02h-2.59v-3.02Z" transform="translate(-4038 -2445)"/>
    <path id="Vector-10" data-name="Vector" class="cls-3" d="M4046.62,2457.1h2.59v3.02h-2.59v-3.02Z" transform="translate(-4038 -2445)"/>
    <path id="Vector-11" data-name="Vector" class="cls-3" d="M4050.93,2457.1h2.59v3.02h-2.59v-3.02Z" transform="translate(-4038 -2445)"/>
  </g>
  <path id="Vector-12" data-name="Vector" class="cls-3" d="M4042.31,2447.02h15.52v3.02h-15.52v-3.02Z" transform="translate(-4038 -2445)"/>
  <path id="Vector-13" data-name="Vector" class="cls-3" d="M4055.24,2457.1h2.59v3.02h-2.59v-3.02Z" transform="translate(-4038 -2445)"/>
  <path id="Vector-14" data-name="Vector" class="cls-4" d="M4055.24,2462.14h2.59v8.06h-2.59v-8.06Z" transform="translate(-4038 -2445)"/>
  <g id="Group-2" data-name="Group">
    <path id="Vector-15" data-name="Vector" class="cls-3" d="M4042.31,2452.06h2.59v3.02h-2.59v-3.02Z" transform="translate(-4038 -2445)"/>
    <path id="Vector-16" data-name="Vector" class="cls-3" d="M4046.62,2452.06h2.59v3.02h-2.59v-3.02Z" transform="translate(-4038 -2445)"/>
    <path id="Vector-17" data-name="Vector" class="cls-3" d="M4050.93,2452.06h2.59v3.02h-2.59v-3.02Z" transform="translate(-4038 -2445)"/>
    <path id="Vector-18" data-name="Vector" class="cls-3" d="M4055.24,2452.06h2.59v3.02h-2.59v-3.02Z" transform="translate(-4038 -2445)"/>
  </g>
  <path id="Vector-19" data-name="Vector" class="cls-5" d="M4045.76,2469.7c0,2.5-1.74,4.53-3.88,4.53s-3.88-2.03-3.88-4.53,1.74-4.54,3.88-4.54S4045.76,2467.19,4045.76,2469.7Z" transform="translate(-4038 -2445)"/>
  <path id="Vector-20" data-name="Vector" class="cls-3" d="M4041.88,2469.19a0.506,0.506,0,1,1,.43-0.5h0.86a1.515,1.515,0,0,0-.86-1.42v-0.6h-0.86v0.6a1.584,1.584,0,0,0-.79,1.92,1.315,1.315,0,0,0,1.22,1.01,0.512,0.512,0,1,1-.43.51h-0.86a1.52,1.52,0,0,0,.86,1.42v0.59h0.86v-0.59a1.592,1.592,0,0,0,.79-1.93A1.327,1.327,0,0,0,4041.88,2469.19Z" transform="translate(-4038 -2445)"/>
  <rect id="Vector-21" data-name="Vector" class="cls-6" x="23.28" y="4.03" width="1.72" height="23.19"/>
  <path id="Vector-22" data-name="Vector" class="cls-7" d="M4063,2449.54h-1.72v-1.01l0.86-2.52,0.86,2.52v1.01Z" transform="translate(-4038 -2445)"/>
</svg>
