<svg id="free-icon-calculator-988118_1" data-name="free-icon-calculator-988118 1" xmlns="http://www.w3.org/2000/svg" width="25" height="25" viewBox="0 0 25 25">
  <defs>
    <style>
      .cls-1 {
        fill: #d9dde1;
      }

      .cls-1, .cls-2, .cls-3, .cls-4, .cls-5, .cls-6, .cls-7 {
        fill-rule: evenodd;
      }

      .cls-2 {
        fill: #75c9c1;
      }

      .cls-3 {
        fill: #6b778a;
      }

      .cls-4 {
        fill: #faa41b;
      }

      .cls-5 {
        fill: #ffd33f;
      }

      .cls-6 {
        fill: #ee2849;
      }

      .cls-7 {
        fill: #f2cba7;
      }
    </style>
  </defs>
  <path id="Vector" class="cls-1" d="M414.275,1873.84H416v1.3a0.863,0.863,0,0,1-1.725,0v-1.3Z" transform="translate(-391 -1851)"/>
  <path id="Vector-2" data-name="Vector" class="cls-2" d="M393.586,1851h18.965v23.28H393.586V1851Z" transform="translate(-391 -1851)"/>
  <g id="Group">
    <path id="Vector-3" data-name="Vector" class="cls-3" d="M395.31,1869.97H397.9v2.58H395.31v-2.58Z" transform="translate(-391 -1851)"/>
    <path id="Vector-4" data-name="Vector" class="cls-3" d="M399.621,1869.97h2.586v2.58h-2.586v-2.58Z" transform="translate(-391 -1851)"/>
    <path id="Vector-5" data-name="Vector" class="cls-3" d="M403.931,1869.97h2.586v2.58h-2.586v-2.58Z" transform="translate(-391 -1851)"/>
    <path id="Vector-6" data-name="Vector" class="cls-3" d="M395.31,1865.65H397.9v2.59H395.31v-2.59Z" transform="translate(-391 -1851)"/>
    <path id="Vector-7" data-name="Vector" class="cls-3" d="M399.621,1865.65h2.586v2.59h-2.586v-2.59Z" transform="translate(-391 -1851)"/>
    <path id="Vector-8" data-name="Vector" class="cls-3" d="M403.931,1865.65h2.586v2.59h-2.586v-2.59Z" transform="translate(-391 -1851)"/>
    <path id="Vector-9" data-name="Vector" class="cls-3" d="M395.31,1861.34H397.9v2.59H395.31v-2.59Z" transform="translate(-391 -1851)"/>
    <path id="Vector-10" data-name="Vector" class="cls-3" d="M399.621,1861.34h2.586v2.59h-2.586v-2.59Z" transform="translate(-391 -1851)"/>
    <path id="Vector-11" data-name="Vector" class="cls-3" d="M403.931,1861.34h2.586v2.59h-2.586v-2.59Z" transform="translate(-391 -1851)"/>
  </g>
  <path id="Vector-12" data-name="Vector" class="cls-1" d="M395.31,1852.72h15.517v2.59H395.31v-2.59Z" transform="translate(-391 -1851)"/>
  <path id="Vector-13" data-name="Vector" class="cls-3" d="M408.241,1861.34h2.586v2.59h-2.586v-2.59Z" transform="translate(-391 -1851)"/>
  <path id="Vector-14" data-name="Vector" class="cls-4" d="M408.241,1865.65h2.586v6.9h-2.586v-6.9Z" transform="translate(-391 -1851)"/>
  <g id="Group-2" data-name="Group">
    <path id="Vector-15" data-name="Vector" class="cls-3" d="M395.31,1857.03H397.9v2.59H395.31v-2.59Z" transform="translate(-391 -1851)"/>
    <path id="Vector-16" data-name="Vector" class="cls-3" d="M399.621,1857.03h2.586v2.59h-2.586v-2.59Z" transform="translate(-391 -1851)"/>
    <path id="Vector-17" data-name="Vector" class="cls-3" d="M403.931,1857.03h2.586v2.59h-2.586v-2.59Z" transform="translate(-391 -1851)"/>
    <path id="Vector-18" data-name="Vector" class="cls-3" d="M408.241,1857.03h2.586v2.59h-2.586v-2.59Z" transform="translate(-391 -1851)"/>
  </g>
  <path id="Vector-19" data-name="Vector" class="cls-5" d="M398.759,1872.12a3.88,3.88,0,1,1-3.88-3.88A3.882,3.882,0,0,1,398.759,1872.12Z" transform="translate(-391 -1851)"/>
  <path id="Vector-20" data-name="Vector" class="cls-4" d="M394.879,1871.69a0.43,0.43,0,1,1,.431-0.43h0.862a1.3,1.3,0,0,0-.862-1.22v-0.51h-0.862v0.51a1.292,1.292,0,0,0,.431,2.51,0.43,0.43,0,1,1-.431.43h-0.862a1.3,1.3,0,0,0,.862,1.22v0.51h0.862v-0.51A1.292,1.292,0,0,0,394.879,1871.69Z" transform="translate(-391 -1851)"/>
  <path id="Vector-21" data-name="Vector" class="cls-6" d="M414.275,1854.45H416v19.83h-1.725v-19.83Z" transform="translate(-391 -1851)"/>
  <path id="Vector-22" data-name="Vector" class="cls-7" d="M416,1854.88h-1.725v-0.86l0.863-2.16,0.862,2.16v0.86Z" transform="translate(-391 -1851)"/>
</svg>
