<svg id="free-icon-eco-car-1085966_1" data-name="free-icon-eco-car-1085966 1" xmlns="http://www.w3.org/2000/svg" width="33.968" height="18" viewBox="0 0 12.5 6.624">
  <defs>
    <style>
      .cls-1 {
        fill: #0063b0;
        fill-rule: evenodd;
      }
    </style>
  </defs>
  <g id="surface1">
    <path id="Vector" class="cls-1" d="M3770.19,738.836h0.64a1.454,1.454,0,0,0,2.88,0h5.04a1.453,1.453,0,0,0,2.89-.117l0.78-.777a0.2,0.2,0,0,0,.06-0.147v-1.876a0.211,0.211,0,0,0-.05-0.13l-0.75-.937,0.36-.714a0.211,0.211,0,0,0-.09-0.28,0.234,0.234,0,0,0-.07-0.021l-1.14-.119-2.04-.215a8.5,8.5,0,0,0-3.94.5,7.59,7.59,0,0,0-2,1.206l-0.4.332-0.28.155-1.32.51a0.212,0.212,0,0,0-.02.012,1.454,1.454,0,0,0-.76,1.28v1.133A0.206,0.206,0,0,0,3770.19,738.836Zm2.08,0.834a1.042,1.042,0,1,1,1.04-1.042A1.038,1.038,0,0,1,3772.27,739.67Zm7.92,0a1.042,1.042,0,1,1,1.04-1.042A1.038,1.038,0,0,1,3780.19,739.67Zm1.87-2.917h-0.67l-0.1-.417h0.77v0.417Zm-1.23-2.607,0.7,0.074-0.28.564a0.2,0.2,0,0,0,.02.224l0.73,0.911h-0.98a0.214,0.214,0,0,0-.21.209,0.089,0.089,0,0,0,.01.05l0.21,0.834a0.2,0.2,0,0,0,.2.158h0.83v0.538l-0.48.483v-0.006a1.3,1.3,0,0,0-.08-0.184,0.073,0.073,0,0,0-.02-0.039,1.135,1.135,0,0,0-.1-0.167c-0.01-.011-0.01-0.021-0.02-0.032-0.04-.049-0.08-0.1-0.12-0.14a0.037,0.037,0,0,0-.02-0.019,1.088,1.088,0,0,0-.14-0.13,0.138,0.138,0,0,1-.04-0.027,1.193,1.193,0,0,0-.17-0.106c-0.01,0-.01-0.007-0.02-0.011-0.06-.028-0.12-0.053-0.17-0.074a0.186,0.186,0,0,1-.04-0.013,1.272,1.272,0,0,0-.2-0.049l-0.04-.006a1.241,1.241,0,0,0-.21-0.018c-0.05,0-.1,0-0.15.007l-0.04.006c-0.03,0-.06.008-0.09,0.015l-0.06.012c-0.03.006-.05,0.013-0.08,0.021a0.215,0.215,0,0,0-.05.018c-0.03.009-.05,0.018-0.08,0.027s-0.03.016-.05,0.024a0.286,0.286,0,0,0-.07.033,0.22,0.22,0,0,0-.05.029,0.323,0.323,0,0,0-.07.04c-0.02.01-.03,0.021-0.05,0.032l-0.06.047a0.129,0.129,0,0,0-.04.035,0.292,0.292,0,0,0-.06.054,0.132,0.132,0,0,0-.04.037l-0.06.063-0.03.036a0.446,0.446,0,0,0-.07.084c0,0.008-.01.016-0.01,0.024a0.6,0.6,0,0,0-.07.115c-0.01.011-.01,0.023-0.02,0.034-0.01.029-.03,0.058-0.04,0.088s-0.01.032-.02,0.048-0.02.052-.03,0.08a0.1,0.1,0,0,0-.01.054l-0.03.079a0.125,0.125,0,0,1-.01.059,0.08,0.08,0,0,1-.01.047h-2.24l0.1-.416h1.5v-0.416h-1.4l0.44-1.743,2.64-.132a0.215,0.215,0,0,0,.17-0.1Zm-3.2-.271,0.15,0a8.365,8.365,0,0,1,.88.045l1.71,0.181-0.72,1.2-2.4.119Zm-4.6,1.651a7.06,7.06,0,0,1,1.89-1.141,7.385,7.385,0,0,1,2.28-.492l-0.39,1.549-3.92.195Zm-2.64,1.969a1.046,1.046,0,0,1,.54-0.909l1.28-.5,4.49-.224-0.43,1.722h-2.33V738h2.23l-0.1.417h-2.36a0.084,0.084,0,0,0-.01-0.048,0.123,0.123,0,0,0-.01-0.059,0.225,0.225,0,0,0-.02-0.078c0-.019-0.01-0.037-0.01-0.055l-0.03-.08c-0.01-.016-0.01-0.032-0.02-0.048s-0.03-.059-0.04-0.087c-0.01-.012-0.01-0.024-0.02-0.035a0.668,0.668,0,0,0-.07-0.115c-0.01-.008-0.01-0.016-0.02-0.024-0.02-.028-0.04-0.057-0.06-0.083l-0.03-.037c-0.02-.021-0.04-0.043-0.06-0.062s-0.03-.025-0.04-0.038l-0.06-.054c-0.01-.012-0.03-0.023-0.04-0.035a0.369,0.369,0,0,0-.07-0.046c-0.01-.012-0.03-0.021-0.04-0.033s-0.05-.027-0.07-0.04-0.03-.019-0.05-0.028-0.05-.023-0.07-0.034a0.3,0.3,0,0,1-.05-0.023c-0.03-.01-0.05-0.019-0.08-0.028a0.274,0.274,0,0,1-.05-0.018l-0.08-.02c-0.02,0-.04-0.01-0.06-0.013s-0.06-.01-0.09-0.014l-0.05-.007a1,1,0,0,0-.14-0.008,1.19,1.19,0,0,0-.14.007c-0.02,0-.03,0-0.05.006s-0.06.008-.09,0.015l-0.06.012-0.08.021a0.378,0.378,0,0,1-.05.018c-0.03.009-.05,0.018-0.08,0.028a0.3,0.3,0,0,1-.05.023c-0.02.01-.05,0.021-0.07,0.033s-0.03.019-.05,0.029a0.667,0.667,0,0,1-.07.04c-0.01.01-.03,0.021-0.04,0.032a0.369,0.369,0,0,0-.07.047c-0.01.011-.03,0.023-0.04,0.035l-0.06.054c-0.01,0-.01.011-0.02,0.016h-0.86V737.5Zm0,0.508h0.56a0.106,0.106,0,0,1-.02.049c-0.01.017-.01,0.032-0.02,0.048l-0.03.08c0,0.018-.01.036-0.01,0.055a0.225,0.225,0,0,0-.02.078c-0.01.02-.01,0.039-0.02,0.059v0.048h-0.44V738Z" transform="translate(-3769.97 -733.438)"/>
    <path id="Vector-2" data-name="Vector" class="cls-1" d="M3774.98,736.128h1.04v0.417h-1.04v-0.417Z" transform="translate(-3769.97 -733.438)"/>
    <path id="Vector-3" data-name="Vector" class="cls-1" d="M3778.31,736.128h1.25v0.417h-1.25v-0.417Z" transform="translate(-3769.97 -733.438)"/>
  </g>
</svg>
