<svg id="free-icon-firm-2780865_1" data-name="free-icon-firm-2780865 1" xmlns="http://www.w3.org/2000/svg" width="19.062" height="25" viewBox="0 0 19.062 25">
  <defs>
    <style>
      .cls-1 {
        fill: #ececf1;
      }

      .cls-1, .cls-2, .cls-3, .cls-4, .cls-5, .cls-6, .cls-7, .cls-8 {
        fill-rule: evenodd;
      }

      .cls-2 {
        fill: #d8d8d8;
      }

      .cls-3 {
        fill: #babac0;
      }

      .cls-4 {
        fill: #995c70;
      }

      .cls-5 {
        fill: #8c4d62;
      }

      .cls-6 {
        fill: #ffd396;
      }

      .cls-7 {
        fill: #e6a82e;
      }

      .cls-8 {
        fill: #b38324;
      }
    </style>
  </defs>
  <g id="Group">
    <g id="Group-2" data-name="Group">
      <path id="Vector" class="cls-1" d="M224.535,1850.5h-8.057v8.5l1.465-.98,2.2,1.47,2.2-1.47,2.2,1.47,2.2-1.47,2.2,1.47,2.2-1.47,1.464,0.98v-8.5h-8.056Z" transform="translate(-216.469 -1850.5)"/>
      <path id="Vector-2" data-name="Vector" class="cls-1" d="M228.93,1861.39l-2.2-1.47-2.2,1.47-2.2-1.47-2.2,1.47-2.2-1.47-1.465.98v11.62h16.113V1860.9l-1.464-.98Z" transform="translate(-216.469 -1850.5)"/>
    </g>
    <g id="Group-3" data-name="Group">
      <path id="Vector-3" data-name="Vector" class="cls-2" d="M228.93,1859.49l2.2-1.47,1.464,0.98v-8.5h-8.056v8.99l2.2-1.47Z" transform="translate(-216.469 -1850.5)"/>
      <path id="Vector-4" data-name="Vector" class="cls-2" d="M232.591,1860.9l-1.464-.98-2.2,1.47-2.2-1.47-2.2,1.47v11.13h8.056V1860.9Z" transform="translate(-216.469 -1850.5)"/>
      <path id="Vector-5" data-name="Vector" class="cls-2" d="M219.408,1868.13h4.4v1.46h-4.4v-1.46Z" transform="translate(-216.469 -1850.5)"/>
      <path id="Vector-6" data-name="Vector" class="cls-2" d="M224.535,1853.48h-3.662v1.46H228.2v-1.46h-3.662Z" transform="translate(-216.469 -1850.5)"/>
    </g>
    <path id="Vector-7" data-name="Vector" class="cls-3" d="M224.535,1853.48H228.2v1.46h-3.662v-1.46Z" transform="translate(-216.469 -1850.5)"/>
    <path id="Vector-8" data-name="Vector" class="cls-2" d="M224.535,1864.46h-5.127v1.47h7.324v-1.47h-2.2Z" transform="translate(-216.469 -1850.5)"/>
    <path id="Vector-9" data-name="Vector" class="cls-3" d="M224.535,1864.46h2.2v1.47h-2.2v-1.47Z" transform="translate(-216.469 -1850.5)"/>
    <path id="Vector-10" data-name="Vector" class="cls-4" d="M231.859,1869.93h-2.2v5.57l2.2-1.1,2.2-1.1v-3.37h-2.2Z" transform="translate(-216.469 -1850.5)"/>
    <path id="Vector-11" data-name="Vector" class="cls-5" d="M234.056,1869.93h-2.2v4.47l2.2-1.1v-3.37Z" transform="translate(-216.469 -1850.5)"/>
    <path id="Vector-12" data-name="Vector" class="cls-6" d="M235.521,1867.39a3.662,3.662,0,1,1-3.662-3.66A3.664,3.664,0,0,1,235.521,1867.39Z" transform="translate(-216.469 -1850.5)"/>
    <path id="Vector-13" data-name="Vector" class="cls-7" d="M235.521,1867.39a3.671,3.671,0,0,0-3.662-3.66v7.33A3.673,3.673,0,0,0,235.521,1867.39Z" transform="translate(-216.469 -1850.5)"/>
    <path id="Vector-14" data-name="Vector" class="cls-7" d="M231.127,1866.66h1.464v1.47h-1.464v-1.47Z" transform="translate(-216.469 -1850.5)"/>
    <path id="Vector-15" data-name="Vector" class="cls-8" d="M231.859,1866.66h0.732v1.47h-0.732v-1.47Z" transform="translate(-216.469 -1850.5)"/>
  </g>
</svg>
