<svg xmlns="http://www.w3.org/2000/svg" width="15" height="13.18" viewBox="0 0 15 13.18">
  <defs>
    <style>
      .cls-1 {
        fill: #0063b0;
        fill-rule: evenodd;
      }
    </style>
  </defs>
  <path id="Vector" class="cls-1" d="M220.683,1539.6H219.62l0.752-.75a2.524,2.524,0,0,0,.726-1.5,5.767,5.767,0,0,1-2.245-2.66,5.2,5.2,0,0,1-.15-3.33,6.5,6.5,0,0,1,2.5-3.48,8.144,8.144,0,0,1,4.823-1.48,8.053,8.053,0,0,1,5.575,1.9,5.711,5.711,0,0,1,1.9,4.25,5.633,5.633,0,0,1-.478,2.28,5.9,5.9,0,0,1-1.426,1.99,8.1,8.1,0,0,1-5.571,1.9,10.03,10.03,0,0,1-2.522-.32,3.923,3.923,0,0,1-2.82,1.2h0Zm5.342-12.32c-3.641,0-5.875,2.17-6.473,4.32a4.436,4.436,0,0,0,2.231,5.14l0.22,0.13-0.007.26a3.442,3.442,0,0,1-.351,1.43,3.068,3.068,0,0,0,1.38-.94l0.186-.22,0.276,0.08a8.807,8.807,0,0,0,2.538.36c4.53,0,6.594-2.74,6.594-5.29a4.838,4.838,0,0,0-1.613-3.6,7.191,7.191,0,0,0-4.981-1.67h0Z" transform="translate(-218.5 -1526.41)"/>
</svg>
