<svg id="family_1" data-name="family 1" xmlns="http://www.w3.org/2000/svg" width="18.275" height="18" viewBox="0 0 12.5 12.312">
  <defs>
    <style>
      .cls-1 {
        fill: #0063b0;
        fill-rule: evenodd;
      }
    </style>
  </defs>
  <g id="Group">
    <g id="Group-2" data-name="Group">
      <path id="Vector" class="cls-1" d="M3773.78,646.53a0.243,0.243,0,0,0-.17.42,0.842,0.842,0,0,0,1.16,0,0.244,0.244,0,0,0,0-.345,0.238,0.238,0,0,0-.34-0.006,0.35,0.35,0,0,1-.48,0,0.25,0.25,0,0,0-.17-0.069h0Z" transform="translate(-3771 -640.594)"/>
      <path id="Vector-2" data-name="Vector" class="cls-1" d="M3783.49,647.858a0.245,0.245,0,0,0-.16-0.29,1.638,1.638,0,0,1-1.27-1.589v-0.512a2.849,2.849,0,0,0-.53-1.837,1.953,1.953,0,0,0-2.88,0,2.792,2.792,0,0,0-.56,1.84v0.512a1.483,1.483,0,0,1-.63,1.266,1.566,1.566,0,0,0-1.77.982c-0.06-.019-0.4-0.111-0.51-0.14v-0.163a2.081,2.081,0,0,0,1.1-1.839v-0.97a2.1,2.1,0,0,0-4.19,0v0.97a2.1,2.1,0,0,0,1.1,1.839v0.163c-0.1.029-.2,0.058-0.31,0.087-0.83.223-1.86,0.5-1.88,1.762v2.14a0.244,0.244,0,0,0,.24.244h3.31v0.349a0.237,0.237,0,0,0,.24.244h1.27a0.244,0.244,0,0,0,0-.488h-1.03v-0.147a1.76,1.76,0,0,1,.07-0.446,1.355,1.355,0,0,1,1.1-.717c0.02-.008.05-0.015,0.07-0.023a0.923,0.923,0,0,0,.86.6,0.941,0.941,0,0,0,.91-0.6l0.07,0.022c0.69,0.2,1.15.338,1.16,1.163v0.147h-1.02a0.244,0.244,0,1,0,0,.488h1.27a0.244,0.244,0,0,0,.24-0.244V652.32h3.26a0.244,0.244,0,0,0,.24-0.244v-2.14a1.5,1.5,0,0,0-.44-1.111,1.262,1.262,0,0,0,.67-0.967h0Zm-3.41-4.375a1.31,1.31,0,0,1,1.07.459,2.122,2.122,0,0,1,.42,1.329,1.1,1.1,0,0,1-1.28-.567,0.242,0.242,0,0,0-.43,0,1.1,1.1,0,0,1-1.28.567c0.06-1.123.61-1.788,1.5-1.788h0Zm-1.51,2.282a2.422,2.422,0,0,0,.31.021,1.525,1.525,0,0,0,1.2-.529,1.49,1.49,0,0,0,1.19.529,2.422,2.422,0,0,0,.31-0.021v0.214a1.505,1.505,0,0,1-3.01,0v-0.214h0Zm2.01,2.137v0.365a0.505,0.505,0,1,1-1.01,0V647.9a1.957,1.957,0,0,0,.51.066A1.938,1.938,0,0,0,3780.58,647.9Zm-2.24-.944a2.033,2.033,0,0,0,.74.742v0.387c-0.1.03-.21,0.058-0.32,0.087l-0.15.042a1.543,1.543,0,0,0-.64-0.767,1.677,1.677,0,0,0,.37-0.491h0Zm-2.18,1.415a1.069,1.069,0,0,1,.99-0.67,1.08,1.08,0,0,1,1.06.872,2.49,2.49,0,0,0-1.06-.239,2.446,2.446,0,0,0-1.05.239,0.723,0.723,0,0,1,.06-0.2h0Zm-3.58-3.258a1.605,1.605,0,1,1,3.21,0v0.253a3.476,3.476,0,0,1-2.04-.463,0.254,0.254,0,0,0-.34.053,1.05,1.05,0,0,1-.83.382v-0.225h0Zm0,0.97v-0.253a1.676,1.676,0,0,0,1.07-.41,4.184,4.184,0,0,0,2.14.434v0.229a1.605,1.605,0,0,1-3.21,0h0Zm2.12,2.03v0.152a0.51,0.51,0,0,1-1.02,0v-0.153a2.047,2.047,0,0,0,.51.063A2.223,2.223,0,0,0,3774.7,648.115Zm1.52,2.484c-0.06.016-.11,0.032-0.16,0.048a1.688,1.688,0,0,0-1.46,1.185h-1.81v-0.988a0.237,0.237,0,0,0-.24-0.244,0.244,0.244,0,0,0-.24.244v0.988h-0.82v-1.89c0.01-.832.58-1.045,1.51-1.3,0.08-.021.16-0.042,0.24-0.065a1,1,0,0,0,.95.683,0.99,0.99,0,0,0,.94-0.683c0.08,0.023.39,0.106,0.46,0.127v0.416a1.563,1.563,0,0,0,.63,1.249V650.6Zm1.38,0.178h0a0.45,0.45,0,0,1-.9,0h0v-0.158a1.264,1.264,0,0,0,.19.043,1.437,1.437,0,0,0,.26.023,1.617,1.617,0,0,0,.23-0.016,1.452,1.452,0,0,0,.22-0.05v0.158Zm0.13-.75a1.078,1.078,0,0,1-1.15.006,1.092,1.092,0,0,1-.5-0.887,1.972,1.972,0,0,1,2.15,0A1.087,1.087,0,0,1,3777.73,650.027Zm5.04,1.8h-0.81v-0.988a0.245,0.245,0,0,0-.49,0v0.988h-1.76a1.711,1.711,0,0,0-1.46-1.185l-0.16-.048v-0.227a1.563,1.563,0,0,0,.63-1.249v-0.341a0.262,0.262,0,0,0-.01-0.088l0.18-.048,0.24-.066a1,1,0,0,0,1.89,0c0.08,0.023.16,0.044,0.24,0.065,0.93,0.252,1.5.465,1.51,1.3v1.89h0Zm-0.48-3.356a5.568,5.568,0,0,0-.9-0.3c-0.11-.029-0.22-0.058-0.32-0.087V647.7a1.926,1.926,0,0,0,.73-0.739,2.253,2.253,0,0,0,1.16.989A0.7,0.7,0,0,1,3782.29,648.476Z" transform="translate(-3771 -640.594)"/>
      <path id="Vector-3" data-name="Vector" class="cls-1" d="M3777.1,643.682a0.233,0.233,0,0,0,.17.069,0.25,0.25,0,0,0,.17-0.069l1.29-1.247a1.073,1.073,0,0,0-.73-1.848,1.132,1.132,0,0,1-1.47,0,1.052,1.052,0,0,0-.75.328,1.075,1.075,0,0,0,.03,1.52Zm-0.97-2.429a0.578,0.578,0,0,1,.41-0.178h0.01a0.577,0.577,0,0,1,.41.164l0.14,0.133a0.246,0.246,0,0,0,.34,0l0.13-.133a0.592,0.592,0,0,1,.42-0.164,0.561,0.561,0,0,1,.41.178,0.587,0.587,0,0,1-.01.831l-1.12,1.083-1.13-1.083a0.587,0.587,0,0,1-.01-0.831h0Z" transform="translate(-3771 -640.594)"/>
      <path id="Vector-4" data-name="Vector" class="cls-1" d="M3777.15,652.425a0.244,0.244,0,0,0,0,.488h0A0.244,0.244,0,1,0,3777.15,652.425Z" transform="translate(-3771 -640.594)"/>
    </g>
  </g>
</svg>
