<svg id="first-aid-kit_1" data-name="first-aid-kit 1" xmlns="http://www.w3.org/2000/svg" width="20.81" height="18" viewBox="0 0 12.5 10.812">
  <defs>
    <style>
      .cls-1 {
        fill: #0063b0;
        fill-rule: evenodd;
      }
    </style>
  </defs>
  <g id="Group">
    <g id="Group-2" data-name="Group">
      <path id="Vector" class="cls-1" d="M3779.44,676.879h-1.05v-1.05a0.386,0.386,0,0,0-.38-0.386h-1.52a0.382,0.382,0,0,0-.38.384v1.049h-1.05a0.379,0.379,0,0,0-.38.381v1.515a0.382,0.382,0,0,0,.38.383h1.05V680.2a0.386,0.386,0,0,0,.38.386H3778a0.391,0.391,0,0,0,.39-0.384v-1.049h1.05a0.379,0.379,0,0,0,.38-0.381v-1.512A0.381,0.381,0,0,0,3779.44,676.879Zm-0.13,1.762h-1.18a0.261,0.261,0,0,0-.26.257v1.175h-1.25V678.9a0.252,0.252,0,0,0-.25-0.257h-1.18v-1.248h1.18a0.252,0.252,0,0,0,.25-0.257v-1.178h1.25v1.175a0.262,0.262,0,0,0,.26.258h1.18v1.25Z" transform="translate(-3771 -671.844)"/>
    </g>
  </g>
  <g id="Group-3" data-name="Group">
    <g id="Group-4" data-name="Group">
      <path id="Vector-2" data-name="Vector" class="cls-1" d="M3781.73,673.52h-2.12v-0.906a0.758,0.758,0,0,0-.73-0.772c-0.02,0-.04,0-0.06,0h-3.14a0.758,0.758,0,0,0-.79.708v0.964h-2.12a1.668,1.668,0,0,0-1.77,1.774v5.594a1.668,1.668,0,0,0,1.77,1.775h8.96a1.668,1.668,0,0,0,1.77-1.775v-5.589A1.663,1.663,0,0,0,3781.73,673.52Zm-6.32-.906a0.24,0.24,0,0,1,.27-0.275h3.14a0.239,0.239,0,0,1,.27.275v0.9h-3.68v-0.9Zm7.58,8.269a1.156,1.156,0,0,1-1.26,1.261h-8.96a1.16,1.16,0,0,1-1.26-1.261v-5.589a1.156,1.156,0,0,1,1.26-1.26h8.96a1.16,1.16,0,0,1,1.26,1.26v5.589h0Z" transform="translate(-3771 -671.844)"/>
    </g>
  </g>
</svg>
