<svg id="free-icon-group-712005_1" data-name="free-icon-group-712005 1" xmlns="http://www.w3.org/2000/svg" width="17.764" height="17.588" viewBox="0 0 12.5 12.376">
  <defs>
    <style>
      .cls-1 {
        fill: #0063b0;
        fill-rule: evenodd;
      }
    </style>
  </defs>
  <g id="Group">
    <g id="Group-2" data-name="Group">
      <path id="Vector" class="cls-1" d="M3778.03,554.7h-1.56a1.981,1.981,0,0,0-1.98,1.975v2.49a0.4,0.4,0,0,0,.4.395h0.47l0.25,3.022a0.4,0.4,0,0,0,.39.363h2.51a0.392,0.392,0,0,0,.39-0.364l0.24-3.021h0.47a0.4,0.4,0,0,0,.4-0.395v-2.49A1.981,1.981,0,0,0,3778.03,554.7Zm1.19,4.07h-0.45a0.391,0.391,0,0,0-.39.364l-0.24,3.021h-1.77l-0.25-3.022a0.391,0.391,0,0,0-.39-0.363h-0.45v-2.1a1.187,1.187,0,0,1,1.19-1.185h1.56a1.187,1.187,0,0,1,1.19,1.185v2.1h0Z" transform="translate(-3771 -550.562)"/>
    </g>
  </g>
  <g id="Group-3" data-name="Group">
    <g id="Group-4" data-name="Group">
      <path id="Vector-2" data-name="Vector" class="cls-1" d="M3777.24,551.317a1.581,1.581,0,1,0,1.58,1.58A1.583,1.583,0,0,0,3777.24,551.317Zm0,2.37a0.79,0.79,0,1,1,.79-0.79A0.794,0.794,0,0,1,3777.24,553.687Z" transform="translate(-3771 -550.562)"/>
    </g>
  </g>
  <g id="Group-5" data-name="Group">
    <g id="Group-6" data-name="Group">
      <path id="Vector-3" data-name="Vector" class="cls-1" d="M3781.52,553.924h-1.56a1.977,1.977,0,0,0-1.76,1.068l0.7,0.368a1.191,1.191,0,0,1,1.06-.645h1.56a1.187,1.187,0,0,1,1.19,1.185V558h-0.46a0.4,0.4,0,0,0-.4.364l-0.23,3.021h-1.77l-0.17-2.217-0.79.06,0.2,2.582a0.392,0.392,0,0,0,.39.365h2.51a0.4,0.4,0,0,0,.39-0.364l0.23-3.021h0.49a0.4,0.4,0,0,0,.4-0.395V555.9A1.982,1.982,0,0,0,3781.52,553.924Z" transform="translate(-3771 -550.562)"/>
    </g>
  </g>
  <g id="Group-7" data-name="Group">
    <g id="Group-8" data-name="Group">
      <path id="Vector-4" data-name="Vector" class="cls-1" d="M3780.73,550.553a1.581,1.581,0,1,0,1.58,1.58A1.583,1.583,0,0,0,3780.73,550.553Zm0,2.371a0.791,0.791,0,1,1,.79-0.791A0.8,0.8,0,0,1,3780.73,552.924Z" transform="translate(-3771 -550.562)"/>
    </g>
  </g>
  <g id="Group-9" data-name="Group">
    <g id="Group-10" data-name="Group">
      <path id="Vector-5" data-name="Vector" class="cls-1" d="M3772.98,554.728h1.56a1.191,1.191,0,0,1,1.06.645l0.7-.368a1.978,1.978,0,0,0-1.76-1.067h-1.56a1.981,1.981,0,0,0-1.98,1.975v2.477a0.4,0.4,0,0,0,.4.395h0.47l0.24,3.021a0.392,0.392,0,0,0,.39.364h2.5a0.4,0.4,0,0,0,.4-0.365l0.2-2.608-0.79-.06-0.17,2.243h-1.77l-0.24-3.021a0.391,0.391,0,0,0-.39-0.364h-0.45v-2.082A1.187,1.187,0,0,1,3772.98,554.728Z" transform="translate(-3771 -550.562)"/>
    </g>
  </g>
  <g id="Group-11" data-name="Group">
    <g id="Group-12" data-name="Group">
      <path id="Vector-6" data-name="Vector" class="cls-1" d="M3773.75,550.553a1.581,1.581,0,1,0,1.58,1.58A1.583,1.583,0,0,0,3773.75,550.553Zm0,2.371a0.791,0.791,0,1,1,.79-0.791A0.8,0.8,0,0,1,3773.75,552.924Z" transform="translate(-3771 -550.562)"/>
    </g>
  </g>
</svg>
