<svg id="free-icon-health-insurance-843440_1" data-name="free-icon-health-insurance-843440 1" xmlns="http://www.w3.org/2000/svg" width="18.654" height="18" viewBox="0 0 12.5 12.062">
  <defs>
    <style>
      .cls-1 {
        fill: #0063b0;
        fill-rule: evenodd;
      }
    </style>
  </defs>
  <g id="Group">
    <g id="Group-2" data-name="Group">
      <path id="Vector" class="cls-1" d="M3775.79,771.4h-3.04a0.183,0.183,0,0,0,0,.366h3.04A0.183,0.183,0,1,0,3775.79,771.4Z" transform="translate(-3770 -760.719)"/>
    </g>
  </g>
  <g id="Group-3" data-name="Group">
    <g id="Group-4" data-name="Group">
      <path id="Vector-2" data-name="Vector" class="cls-1" d="M3780.54,765.177a0.181,0.181,0,0,0,.18-0.183v-3.228a1.021,1.021,0,0,0-.3-0.739,1.045,1.045,0,0,0-.74-0.306h-8.63a1.048,1.048,0,0,0-1.05,1.045v1.76a0.181,0.181,0,0,0,.18.183h0.99a0.183,0.183,0,1,0,0-.366h-0.8v-1.577a0.68,0.68,0,0,1,1.16-.48,0.7,0.7,0,0,1,.19.48V772.6a0.19,0.19,0,0,0,.19.183h8.63a0.181,0.181,0,0,0,.18-0.183v-0.628a0.18,0.18,0,1,0-.36,0v0.445h-8.27V761.667a0.019,0.019,0,0,1-.01-0.019V761.6c0-.01-0.01-0.019-0.01-0.029v-0.02c0-.009-0.01-0.018-0.01-0.028V761.5a0.031,0.031,0,0,1-.01-0.027,0.018,0.018,0,0,0-.01-0.019,0.035,0.035,0,0,0-.01-0.029v-0.018a0.037,0.037,0,0,1-.01-0.03,0.014,0.014,0,0,1-.01-0.015c-0.01-.014-0.01-0.028-0.02-0.041v0c-0.01-.015-0.01-0.029-0.02-0.043a0.147,0.147,0,0,0-.01-0.013,0.053,0.053,0,0,0-.02-0.03,0.016,0.016,0,0,0-.01-0.016c0-.008-0.01-0.017-0.01-0.025a0.016,0.016,0,0,1-.01-0.017c-0.01-.008-0.01-0.016-0.02-0.023s-0.01-.012-0.01-0.017-0.01-.015-0.02-0.022-0.01-.011-0.01-0.017-0.01-.006-0.01-0.009h7.84a0.681,0.681,0,0,1,.48.2,0.667,0.667,0,0,1,.2.48v3.228A0.181,0.181,0,0,0,3780.54,765.177Z" transform="translate(-3770 -760.719)"/>
    </g>
  </g>
  <g id="Group-5" data-name="Group">
    <g id="Group-6" data-name="Group">
      <path id="Vector-3" data-name="Vector" class="cls-1" d="M3782.49,767.094a0.174,0.174,0,0,0-.15-0.173,1.681,1.681,0,0,1-1.31-1.18,0.175,0.175,0,0,0-.17-0.133h-2.99a0.187,0.187,0,0,0-.18.133,1.5,1.5,0,0,1-.18.41h-4.76a0.183,0.183,0,0,0,0,.366h4.46a1.687,1.687,0,0,1-.83.4,0.183,0.183,0,0,0-.15.173,1.694,1.694,0,0,0-.01.223,3.766,3.766,0,0,0,.04.583h-3.51a0.183,0.183,0,0,0,0,.366h3.56a5.461,5.461,0,0,0,.48,1.383h-4.04a0.183,0.183,0,0,0,0,.366H3777a5.056,5.056,0,0,0,2.29,1.952,0.194,0.194,0,0,0,.07.014,0.158,0.158,0,0,0,.07-0.014,5.047,5.047,0,0,0,3.07-4.65A1.694,1.694,0,0,0,3782.49,767.094Zm-3.13,4.5a4.647,4.647,0,0,1-2.09-1.85c-0.01-.007-0.01-0.015-0.02-0.022a4.746,4.746,0,0,1-.66-2.409v-0.066a2.06,2.06,0,0,0,1.16-.8c0.01-.008.01-0.017,0.02-0.026a2.313,2.313,0,0,0,.23-0.452h2.72a2.043,2.043,0,0,0,1.41,1.277v0.066A4.679,4.679,0,0,1,3779.36,771.6Z" transform="translate(-3770 -760.719)"/>
    </g>
  </g>
  <g id="Group-7" data-name="Group">
    <g id="Group-8" data-name="Group">
      <path id="Vector-4" data-name="Vector" class="cls-1" d="M3780.66,767.891h-0.62v-0.624a0.183,0.183,0,0,0-.19-0.183h-0.98a0.181,0.181,0,0,0-.18.183v0.624h-0.63a0.181,0.181,0,0,0-.18.184v0.985a0.181,0.181,0,0,0,.18.183h0.63v0.625a0.181,0.181,0,0,0,.18.183h0.98a0.183,0.183,0,0,0,.19-0.183v-0.625h0.62a0.181,0.181,0,0,0,.18-0.183v-0.985A0.181,0.181,0,0,0,3780.66,767.891Zm-0.81.986a0.181,0.181,0,0,0-.18.183v0.625h-0.62V769.06a0.181,0.181,0,0,0-.18-0.183h-0.63v-0.619h0.63a0.181,0.181,0,0,0,.18-0.183V767.45h0.62v0.625a0.181,0.181,0,0,0,.18.183h0.63v0.619h-0.63Z" transform="translate(-3770 -760.719)"/>
    </g>
  </g>
  <g id="Group-9" data-name="Group">
    <g id="Group-10" data-name="Group">
      <path id="Vector-5" data-name="Vector" class="cls-1" d="M3774.39,761.619a1.821,1.821,0,1,0,0,3.642c0.04,0,.08,0,0.12,0A1.821,1.821,0,0,0,3774.39,761.619Zm0.64,3.127v0c-0.02.011-.05,0.021-0.07,0.03v0a0.518,0.518,0,0,0-.07.027c-0.01,0-.01,0-0.01,0-0.03.008-.05,0.015-0.07,0.022a0.142,0.142,0,0,1-.02,0,0.485,0.485,0,0,1-.07.019h0l-0.07.014-0.01,0c-0.03,0-.05.008-0.08,0.011h-0.01c-0.02,0-.05,0-0.07.006h-0.01l-0.08,0-0.08,0h-0.01c-0.02,0-.05,0-0.07-0.006l-0.01,0-0.08-.01-0.01,0-0.07-.014h0a0.485,0.485,0,0,1-.07-0.019l-0.02,0-0.06-.022a0.146,0.146,0,0,1-.02,0,0.724,0.724,0,0,0-.07-0.026v0c-0.02-.01-0.05-0.019-0.07-0.03v-0.12a0.625,0.625,0,0,1,.23-0.492v0c0.01,0.007.03,0.014,0.04,0.021s0,0,.01.006,0.03,0.014.04,0.021a0.042,0.042,0,0,0,.01,0,0.21,0.21,0,0,0,.03.015c0.01,0,.01,0,0.02.006s0.03,0.01.04,0.015l0.01,0,0.04,0.01s0.01,0,.01,0l0.05,0.009h0.01l0.04,0h0.01l0.05,0h0l0.05,0a0.034,0.034,0,0,0,.01,0l0.05,0h0l0.05-.009s0.01,0,.01,0a0.227,0.227,0,0,0,.04-0.01l0.01,0c0.01,0,.03-0.01.04-0.015a0.146,0.146,0,0,1,.02,0l0.03-.016c0.01,0,.01,0,0.01,0s0.03-.014.04-0.022,0.01,0,.01-0.007a0.123,0.123,0,0,0,.04-0.02v0c0.02,0.012.03,0.024,0.05,0.038a0.636,0.636,0,0,1,.18.454v0.118Zm0.36-.25a1.006,1.006,0,0,0-.29-0.581,0.2,0.2,0,0,0-.05-0.049,0.738,0.738,0,0,0,.09-0.358v-0.332a0.75,0.75,0,1,0-1.5,0v0.332a0.738,0.738,0,0,0,.09.358,0.979,0.979,0,0,0-.34.63,1.457,1.457,0,0,1,1-2.51A1.45,1.45,0,0,1,3775.39,764.5Zm-1.39-.988v-0.332a0.39,0.39,0,0,1,.78,0v0.332a0.385,0.385,0,0,1-.11.27l-0.01,0a0.04,0.04,0,0,1-.02.022s0,0-.01,0a0.036,0.036,0,0,1-.02.018s0,0-.01,0a0.031,0.031,0,0,1-.02.015,0.047,0.047,0,0,0-.01,0,0.041,0.041,0,0,0-.02.011c-0.01,0-.01,0-0.01,0l-0.03.009-0.01,0-0.03.008h0a0.433,0.433,0,0,1-.08.007,0.371,0.371,0,0,1-.18-0.046,0.223,0.223,0,0,1-.09-0.068h0A0.361,0.361,0,0,1,3774,763.508Z" transform="translate(-3770 -760.719)"/>
    </g>
  </g>
  <g id="Group-11" data-name="Group">
    <g id="Group-12" data-name="Group">
      <path id="Vector-6" data-name="Vector" class="cls-1" d="M3779.7,762.581h-2.8a0.181,0.181,0,0,0-.18.183v1.352a0.181,0.181,0,0,0,.18.183h2.8a0.181,0.181,0,0,0,.18-0.183v-1.352A0.181,0.181,0,0,0,3779.7,762.581Zm-0.19,1.352h-2.42v-0.986h2.42v0.986h0Z" transform="translate(-3770 -760.719)"/>
    </g>
  </g>
</svg>
