<svg id="free-icon-written-letter-17174_1" data-name="free-icon-written-letter-17174 1" xmlns="http://www.w3.org/2000/svg" width="13" height="18" viewBox="0 0 9.12 12.531">
  <g id="Group">
    <path id="Vector" class="cls-1" d="M3780.86,593h-7.17a0.994,0.994,0,0,1-1-.97V581.389a0.894,0.894,0,0,1,.96-0.889h7.2a1,1,0,0,1,.96.934v10.611A0.9,0.9,0,0,1,3780.86,593Zm-4.1-10.076h-2.4a0.233,0.233,0,0,0,0,.465h2.4A0.233,0.233,0,0,0,3776.76,582.924Zm0.01,0.961h-2.41a0.232,0.232,0,0,0,0,.464h2.41A0.232,0.232,0,1,0,3776.77,583.885Zm0,0.959h-2.41a0.233,0.233,0,0,0,0,.466h2.41A0.233,0.233,0,1,0,3776.77,584.844Zm3.13,1.441h-5.31a0.465,0.465,0,0,0-.46.464,0.478,0.478,0,0,0,.46.48h5.31a0.48,0.48,0,0,0,.47-0.48A0.467,0.467,0,0,0,3779.9,586.285Zm0,1.919h-5.31a0.479,0.479,0,0,0-.46.481,0.465,0.465,0,0,0,.46.464h5.31a0.467,0.467,0,0,0,.47-0.464A0.481,0.481,0,0,0,3779.9,588.2Zm0,1.92h-5.31a0.466,0.466,0,0,0-.46.466,0.478,0.478,0,0,0,.46.479h5.31a0.48,0.48,0,0,0,.47-0.479A0.468,0.468,0,0,0,3779.9,590.124Z" transform="translate(-3772.69 -580.469)"/>
  </g>
</svg>
