<svg id="free-icon-passport-symbol-40020_1" data-name="free-icon-passport-symbol-40020 1" xmlns="http://www.w3.org/2000/svg" width="14.4" height="18" viewBox="0 0 10 12.5">
  <defs>
    <style>
      .cls-1 {
        fill: #0063b0;
        fill-rule: evenodd;
      }
    </style>
  </defs>
  <g id="Group">
    <g id="Group-2" data-name="Group">
      <path id="Vector" class="cls-1" d="M3776.78,704.59l0.13,0.014a2.763,2.763,0,0,0,.68,0l0.13-.014-0.02-.128a3.5,3.5,0,0,0-.31-1.151l-0.05-.055-0.09-.006-0.11,0-0.03.059a3.486,3.486,0,0,0-.31,1.15Z" transform="translate(-3772.25 -701)"/>
      <path id="Vector-2" data-name="Vector" class="cls-1" d="M3776.69,706.5c0.01,0.41.03,0.8,0.07,1.159l0.01,0.125,0.12-.014a2.8,2.8,0,0,1,.72,0l0.12,0.014,0.01-.125c0.04-.359.06-0.749,0.07-1.159v-0.127h-1.12V706.5Z" transform="translate(-3772.25 -701)"/>
      <path id="Vector-3" data-name="Vector" class="cls-1" d="M3775.45,706.507a4.366,4.366,0,0,0,.31,1.469l0.05,0.119,0.12-.053a3.2,3.2,0,0,1,.61-0.207l0.11-.025-0.02-.11c-0.04-.463-0.06-0.909-0.06-1.2l-0.01-.122h-1.12Z" transform="translate(-3772.25 -701)"/>
      <path id="Vector-4" data-name="Vector" class="cls-1" d="M3775.93,704.173l-0.07.118,0.12,0.056a3.362,3.362,0,0,0,.54.19l0.14,0.033,0.02-.138a4.138,4.138,0,0,1,.22-0.952l0.11-.309-0.29.154A2.052,2.052,0,0,0,3775.93,704.173Z" transform="translate(-3772.25 -701)"/>
      <path id="Vector-5" data-name="Vector" class="cls-1" d="M3777.81,706c-0.01-.411-0.03-0.8-0.07-1.159l-0.01-.126-0.12.014a2.8,2.8,0,0,1-.72,0l-0.12-.014-0.01.126c-0.04.358-.06,0.748-0.07,1.159v0.127h1.12V706Z" transform="translate(-3772.25 -701)"/>
      <path id="Vector-6" data-name="Vector" class="cls-1" d="M3777.86,707.7l-0.01.109,0.11,0.025a3.235,3.235,0,0,1,.62.211l0.12,0.054,0.05-.121a4.571,4.571,0,0,0,.3-1.472l0.01-.131h-1.12l-0.01.122A12.02,12.02,0,0,1,3777.86,707.7Z" transform="translate(-3772.25 -701)"/>
      <path id="Vector-7" data-name="Vector" class="cls-1" d="M3777.82,704.432l0.02,0.138,0.14-.033a3.075,3.075,0,0,0,.54-0.194l0.13-.056-0.07-.117a2.039,2.039,0,0,0-.8-0.852l-0.29-.146,0.11,0.3A4.138,4.138,0,0,1,3777.82,704.432Z" transform="translate(-3772.25 -701)"/>
      <path id="Vector-8" data-name="Vector" class="cls-1" d="M3778.69,704.112l0.07,0.116,0.11-.07c0.05-.035.11-0.073,0.16-0.113l0.14-.1-0.14-.1a3.15,3.15,0,0,0-.39-0.25l-0.49-.256,0.33,0.441A3.335,3.335,0,0,1,3778.69,704.112Z" transform="translate(-3772.25 -701)"/>
      <path id="Vector-9" data-name="Vector" class="cls-1" d="M3774.99,710.415a0.37,0.37,0,0,0-.12-0.041,0.813,0.813,0,0,0-.13-0.01h-0.32v0.558h0.32a0.813,0.813,0,0,0,.13-0.01,0.37,0.37,0,0,0,.12-0.041,0.252,0.252,0,0,0,.08-0.085,0.358,0.358,0,0,0,0-.287A0.24,0.24,0,0,0,3774.99,710.415Z" transform="translate(-3772.25 -701)"/>
      <path id="Vector-10" data-name="Vector" class="cls-1" d="M3776.63,704.8l0.02-.11-0.11-.025a3.13,3.13,0,0,1-.61-0.207l-0.12-.054-0.05.12a4.628,4.628,0,0,0-.32,1.469v0.132h1.12V706C3776.57,705.709,3776.59,705.262,3776.63,704.8Z" transform="translate(-3772.25 -701)"/>
      <path id="Vector-11" data-name="Vector" class="cls-1" d="M3779.05,705.994a4.565,4.565,0,0,0-.3-1.472l-0.05-.122-0.12.055a3.165,3.165,0,0,1-.62.21l-0.11.025,0.01,0.11a12.02,12.02,0,0,1,.07,1.2l0.01,0.122h1.12Z" transform="translate(-3772.25 -701)"/>
      <path id="Vector-12" data-name="Vector" class="cls-1" d="M3777.72,707.91l-0.13-.014a2.668,2.668,0,0,0-.68,0l-0.13.014,0.02,0.128a3.824,3.824,0,0,0,.3,1.15l0.06,0.056,0.09,0.006,0.11,0,0.03-.059a3.486,3.486,0,0,0,.31-1.15Z" transform="translate(-3772.25 -701)"/>
      <path id="Vector-13" data-name="Vector" class="cls-1" d="M3779.18,706.494a4.78,4.78,0,0,1-.33,1.566l-0.04.1,0.09,0.055a3.29,3.29,0,0,1,.28.192l0.08,0.065,0.08-.075a3.02,3.02,0,0,0,.9-1.885l0.01-.136h-1.06Z" transform="translate(-3772.25 -701)"/>
      <path id="Vector-14" data-name="Vector" class="cls-1" d="M3778.58,708.33l0.07-.117-0.13-.056a2.834,2.834,0,0,0-.55-0.194l-0.13-.032-0.02.136a4.136,4.136,0,0,1-.22.958l-0.11.3,0.28-.146A2,2,0,0,0,3778.58,708.33Z" transform="translate(-3772.25 -701)"/>
      <path id="Vector-15" data-name="Vector" class="cls-1" d="M3778.87,708.342l-0.11-.071-0.07.116a3.1,3.1,0,0,1-.21.332l-0.33.442,0.49-.256a3.27,3.27,0,0,0,.39-0.25l0.14-.1-0.14-.1C3778.98,708.415,3778.92,708.377,3778.87,708.342Z" transform="translate(-3772.25 -701)"/>
      <path id="Vector-16" data-name="Vector" class="cls-1" d="M3776.27,710.505l-0.24.685h0.48l-0.24-.685h0Z" transform="translate(-3772.25 -701)"/>
      <path id="Vector-17" data-name="Vector" class="cls-1" d="M3775.63,704.158l0.11,0.07,0.07-.116a3.2,3.2,0,0,1,.21-0.332l0.32-.441-0.48.256a3.231,3.231,0,0,0-.4.249l-0.13.1,0.14,0.1A1.412,1.412,0,0,0,3775.63,704.158Z" transform="translate(-3772.25 -701)"/>
      <path id="Vector-18" data-name="Vector" class="cls-1" d="M3779.26,704.028l-0.08.066c-0.1.074-.19,0.136-0.28,0.191l-0.09.056,0.04,0.1a4.78,4.78,0,0,1,.33,1.567v0.119h1.07l-0.01-.136a3.017,3.017,0,0,0-.9-1.885Z" transform="translate(-3772.25 -701)"/>
      <path id="Vector-19" data-name="Vector" class="cls-1" d="M3775.32,706.006a4.78,4.78,0,0,1,.33-1.567l0.04-.1-0.09-.055a3.05,3.05,0,0,1-.28-0.191l-0.09-.066-0.07.075a2.969,2.969,0,0,0-.9,1.886l-0.01.135h1.06Z" transform="translate(-3772.25 -701)"/>
      <path id="Vector-20" data-name="Vector" class="cls-1" d="M3781.25,701h-8a1,1,0,0,0-1,1v10.5a1,1,0,0,0,1,1h8a1,1,0,0,0,1-1V702A1,1,0,0,0,3781.25,701Zm-6.1,10.191a0.843,0.843,0,0,1-.3.051h-0.43v0.669h-0.41v-1.865h0.84a0.843,0.843,0,0,1,.3.051,0.549,0.549,0,0,1,.2.136,0.625,0.625,0,0,1,.11.192,0.829,0.829,0,0,1,0,.442,0.644,0.644,0,0,1-.11.191A0.72,0.72,0,0,1,3775.15,711.191Zm1.61,0.719-0.14-.415h-0.7l-0.15.415h-0.41l0.71-1.865h0.42l0.69,1.865h-0.42Zm1.99-.316a0.451,0.451,0,0,1-.15.189,0.856,0.856,0,0,1-.24.126,1.132,1.132,0,0,1-.34.046,1.188,1.188,0,0,1-.3-0.039,0.762,0.762,0,0,1-.25-0.12,0.588,0.588,0,0,1-.18-0.206,0.566,0.566,0,0,1-.06-0.3h0.39a0.271,0.271,0,0,0,.04.159,0.257,0.257,0,0,0,.09.106,0.385,0.385,0,0,0,.13.059,0.613,0.613,0,0,0,.16.021,0.668,0.668,0,0,0,.11-0.01,0.422,0.422,0,0,0,.12-0.035,0.2,0.2,0,0,0,.09-0.073,0.154,0.154,0,0,0,.04-0.116,0.172,0.172,0,0,0-.05-0.122,0.333,0.333,0,0,0-.13-0.08,1.094,1.094,0,0,0-.17-0.054,1.941,1.941,0,0,1-.2-0.051,2.109,2.109,0,0,1-.21-0.065,0.713,0.713,0,0,1-.17-0.1,0.374,0.374,0,0,1-.13-0.15,0.479,0.479,0,0,1-.05-0.219,0.5,0.5,0,0,1,.06-0.249,0.619,0.619,0,0,1,.16-0.177,0.671,0.671,0,0,1,.23-0.1,0.849,0.849,0,0,1,.25-0.034,1.215,1.215,0,0,1,.28.032,0.706,0.706,0,0,1,.24.106,0.508,0.508,0,0,1,.16.187,0.586,0.586,0,0,1,.06.276h-0.39a0.469,0.469,0,0,0-.04-0.139,0.265,0.265,0,0,0-.08-0.086,0.317,0.317,0,0,0-.11-0.044,0.737,0.737,0,0,0-.14-0.013,0.426,0.426,0,0,0-.1.011,0.339,0.339,0,0,0-.09.036,0.224,0.224,0,0,0-.07.067,0.273,0.273,0,0,0-.02.1,0.129,0.129,0,0,0,.02.09,0.158,0.158,0,0,0,.08.061,1.231,1.231,0,0,0,.17.057c0.07,0.02.17,0.045,0.28,0.074a0.743,0.743,0,0,1,.09.023,0.8,0.8,0,0,1,.12.039,0.7,0.7,0,0,1,.12.064,0.481,0.481,0,0,1,.11.1,0.542,0.542,0,0,1,.09.137,0.518,0.518,0,0,1,.03.184A0.621,0.621,0,0,1,3778.75,711.594Zm1.69,0a0.519,0.519,0,0,1-.14.189,0.793,0.793,0,0,1-.25.126,1.065,1.065,0,0,1-.33.046,1.132,1.132,0,0,1-.3-0.039,0.815,0.815,0,0,1-.26-0.12,0.63,0.63,0,0,1-.24-0.5h0.4a0.379,0.379,0,0,0,.03.159,0.622,0.622,0,0,0,.09.106,0.385,0.385,0,0,0,.13.059,0.676,0.676,0,0,0,.16.021,0.694,0.694,0,0,0,.12-0.01,0.544,0.544,0,0,0,.12-0.035,0.412,0.412,0,0,0,.09-0.073,0.206,0.206,0,0,0,.03-0.116,0.166,0.166,0,0,0-.04-0.122,0.6,0.6,0,0,0-.13-0.08,0.943,0.943,0,0,0-.18-0.054c-0.06-.015-0.13-0.031-0.2-0.051a1.379,1.379,0,0,1-.2-0.065,0.617,0.617,0,0,1-.18-0.1,0.639,0.639,0,0,1-.13-0.15,0.482,0.482,0,0,1-.04-0.219,0.5,0.5,0,0,1,.22-0.426,0.622,0.622,0,0,1,.22-0.1,0.9,0.9,0,0,1,.25-0.034,1.155,1.155,0,0,1,.28.032,0.706,0.706,0,0,1,.24.106,0.535,0.535,0,0,1,.17.187,0.586,0.586,0,0,1,.06.276h-0.4a0.289,0.289,0,0,0-.03-0.139,0.265,0.265,0,0,0-.08-0.086,0.3,0.3,0,0,0-.12-0.044,0.637,0.637,0,0,0-.13-0.013,0.373,0.373,0,0,0-.1.011,0.188,0.188,0,0,0-.09.036,0.224,0.224,0,0,0-.07.067,0.158,0.158,0,0,0-.03.1,0.222,0.222,0,0,0,.02.09,0.271,0.271,0,0,0,.09.061,0.89,0.89,0,0,0,.17.057c0.07,0.02.16,0.045,0.28,0.074l0.09,0.023c0.03,0.01.07,0.022,0.11,0.039a0.525,0.525,0,0,1,.13.064,0.481,0.481,0,0,1,.11.1,0.473,0.473,0,0,1,.11.321A0.479,0.479,0,0,1,3780.44,711.594Zm-3.19-2.094a3.25,3.25,0,1,1,3.25-3.25A3.255,3.255,0,0,1,3777.25,709.5Z" transform="translate(-3772.25 -701)"/>
      <path id="Vector-21" data-name="Vector" class="cls-1" d="M3775.69,708.159l-0.04-.1a4.78,4.78,0,0,1-.33-1.566l-0.01-.119h-1.06l0.01,0.135a2.969,2.969,0,0,0,.9,1.886l0.07,0.074,0.09-.065c0.1-.074.19-0.137,0.28-0.191Z" transform="translate(-3772.25 -701)"/>
      <path id="Vector-22" data-name="Vector" class="cls-1" d="M3775.81,708.387l-0.07-.116-0.11.071a1.3,1.3,0,0,0-.16.113l-0.14.1,0.13,0.1a3.116,3.116,0,0,0,.4.249l0.48,0.257-0.32-.441A3.357,3.357,0,0,1,3775.81,708.387Z" transform="translate(-3772.25 -701)"/>
      <path id="Vector-23" data-name="Vector" class="cls-1" d="M3776.68,708.067l-0.02-.137-0.14.033a3.56,3.56,0,0,0-.54.189l-0.12.056,0.07,0.118a2.045,2.045,0,0,0,.79.848l0.29,0.155-0.11-.31A4.126,4.126,0,0,1,3776.68,708.067Z" transform="translate(-3772.25 -701)"/>
    </g>
  </g>
</svg>
