<svg id="free-icon-shopping-basket-1077979_1" data-name="free-icon-shopping-basket-1077979 1" xmlns="http://www.w3.org/2000/svg" width="20.455" height="17.591" viewBox="0 0 12.5 10.75">
  <defs>
    <style>
      .cls-1, .cls-2 {
        fill: #0063b0;
      }

      .cls-2 {
        fill-rule: evenodd;
      }
    </style>
  </defs>
  <circle id="Vector" class="cls-1" cx="6.25" cy="5.125" r="0.25"/>
  <path id="Vector-2" data-name="Vector" class="cls-2" d="M3782.52,614.8h-1.44l-2.22-3.055a0.731,0.731,0,0,0-1.27.726c0,0.01.01,0.019,0.01,0.029l1.75,2.3h-4.2l1.74-2.3a0.051,0.051,0,0,0,.02-0.029,0.731,0.731,0,0,0-1.27-.726l-2.22,3.055h-1.44a0.978,0.978,0,0,0-.32,1.9,0.283,0.283,0,0,0,.15.052l0.04,0a0.242,0.242,0,0,1,.2.2l0.83,4.569a0.74,0.74,0,0,0,.72.6h7.3a0.74,0.74,0,0,0,.72-0.6l0.83-4.569a0.242,0.242,0,0,1,.2-0.2,0.268,0.268,0,0,1,.04,0,0.257,0.257,0,0,0,.15-0.052,0.978,0.978,0,0,0-.32-1.9h0Zm-4.51-2.579a0.234,0.234,0,0,1,.1-0.319,0.242,0.242,0,0,1,.33.094,0.041,0.041,0,0,0,.02.025l2.02,2.779h-0.52Zm-1.97-.2a0.041,0.041,0,0,0,.02-0.025,0.242,0.242,0,0,1,.33-0.094,0.234,0.234,0,0,1,.1.319l-1.95,2.579h-0.52Zm6.48,4.244h-4.29a0.243,0.243,0,1,0,0,.486H3782a0.233,0.233,0,0,0-.03.113l-0.83,4.572a0.258,0.258,0,0,1-.24.2h-7.3a0.258,0.258,0,0,1-.24-0.2l-0.83-4.569a0.23,0.23,0,0,0-.03-0.113h3.77a0.245,0.245,0,1,0,0-.489h-4.29a0.485,0.485,0,0,1-.49-0.488,0.49,0.49,0,0,1,.49-0.488h10.54A0.488,0.488,0,1,1,3782.52,616.261Z" transform="translate(-3771 -611.375)"/>
  <path id="Vector-3" data-name="Vector" class="cls-2" d="M3777.25,617.482a0.734,0.734,0,0,0-.73.732v1.954a0.73,0.73,0,1,0,1.46,0v-1.954a0.733,0.733,0,0,0-.73-0.732h0Zm0.24,2.686a0.24,0.24,0,1,1-.48,0v-1.954a0.24,0.24,0,1,1,.48,0v1.954Z" transform="translate(-3771 -611.375)"/>
  <path id="Vector-4" data-name="Vector" class="cls-2" d="M3779.69,620.9a0.733,0.733,0,0,0,.73-0.732v-1.954a0.73,0.73,0,1,0-1.46,0v1.954A0.733,0.733,0,0,0,3779.69,620.9Zm-0.24-2.686a0.245,0.245,0,0,1,.49,0v1.954a0.245,0.245,0,0,1-.49,0v-1.954Z" transform="translate(-3771 -611.375)"/>
  <path id="Vector-5" data-name="Vector" class="cls-2" d="M3774.81,617.482a0.727,0.727,0,0,0-.73.732v1.954a0.73,0.73,0,1,0,1.46,0v-1.954a0.733,0.733,0,0,0-.73-0.732h0Zm0.24,2.686a0.245,0.245,0,0,1-.49,0v-1.954a0.246,0.246,0,0,1,.25-0.244,0.244,0.244,0,0,1,.24.244v1.954Z" transform="translate(-3771 -611.375)"/>
</svg>
