<svg xmlns="http://www.w3.org/2000/svg" width="7.469" height="7.219" viewBox="0 0 7.469 7.219">
  <defs>
    <style>
      .cls-1 {
        fill: #ffc107;
        fill-rule: evenodd;
      }
    </style>
  </defs>
  <path id="Vector" class="cls-1" d="M257.48,564.377a0.4,0.4,0,0,0-.343-0.274l-2.165-.2-0.856-2a0.4,0.4,0,0,0-.733,0l-0.856,2-2.165.2a0.4,0.4,0,0,0-.226.7l1.636,1.435-0.482,2.126a0.4,0.4,0,0,0,.155.411,0.391,0.391,0,0,0,.233.076,0.4,0.4,0,0,0,.205-0.057l1.867-1.116,1.866,1.116a0.4,0.4,0,0,0,.594-0.43l-0.483-2.126,1.637-1.434a0.4,0.4,0,0,0,.116-0.424h0Z" transform="translate(-250 -561.656)"/>
</svg>
