<svg id="vk-social-network-logo_1" data-name="vk-social-network-logo 1" xmlns="http://www.w3.org/2000/svg" width="9" height="5.124" viewBox="0 0 9 5.124">
  <defs>
    <style>
      .cls-1 {
        fill: #0d99ff;
        fill-rule: evenodd;
      }
    </style>
  </defs>
  <g id="Group">
    <g id="Group-2" data-name="Group">
      <path id="Vector" class="cls-1" d="M559.452,543.57c-0.011-.024-0.021-0.043-0.03-0.059a4.682,4.682,0,0,0-.9-1.035l-0.009-.01-0.005,0,0,0h0q-0.3-.287-0.379-0.384a0.362,0.362,0,0,1-.066-0.38,3.507,3.507,0,0,1,.422-0.614q0.192-.247.3-0.4a2.315,2.315,0,0,0,.7-1.378l-0.028-.046a0.272,0.272,0,0,0-.145-0.078,0.755,0.755,0,0,0-.3-0.012l-1.349.01a0.177,0.177,0,0,0-.094,0l-0.061.014-0.023.012-0.019.014a0.228,0.228,0,0,0-.052.049,0.382,0.382,0,0,0-.047.082,7.732,7.732,0,0,1-.5,1.055c-0.115.193-.222,0.361-0.319,0.5a2.314,2.314,0,0,1-.244.314,1.723,1.723,0,0,1-.177.162,0.173,0.173,0,0,1-.122.052l-0.08-.019a0.315,0.315,0,0,1-.105-0.115,0.5,0.5,0,0,1-.054-0.183c-0.01-.073-0.015-0.137-0.017-0.19s0-.128,0-0.225,0-.162,0-0.2c0-.118,0-0.247.007-0.386s0.009-.249.012-0.33,0-.167,0-0.258a1.058,1.058,0,0,0-.017-0.213,0.659,0.659,0,0,0-.049-0.15,0.254,0.254,0,0,0-.1-0.113,0.558,0.558,0,0,0-.157-0.063,4.483,4.483,0,0,0-1.752.052,0.622,0.622,0,0,0-.178.14c-0.057.069-.064,0.106-0.024,0.112a0.577,0.577,0,0,1,.4.2l0.029,0.056a0.967,0.967,0,0,1,.065.216,2.132,2.132,0,0,1,.042.342,3.558,3.558,0,0,1,0,.586c-0.015.162-.03,0.289-0.044,0.379a0.753,0.753,0,0,1-.063.22,1.053,1.053,0,0,1-.056.1,0.087,0.087,0,0,1-.024.024,0.365,0.365,0,0,1-.126.023,0.3,0.3,0,0,1-.16-0.065,1.1,1.1,0,0,1-.194-0.181,2.324,2.324,0,0,1-.227-0.321,5.368,5.368,0,0,1-.263-0.487l-0.075-.136c-0.047-.087-0.111-0.215-0.192-0.382s-0.153-.329-0.216-0.485a0.314,0.314,0,0,0-.112-0.15l-0.024-.014a0.347,0.347,0,0,0-.075-0.04,0.485,0.485,0,0,0-.107-0.03l-1.284.009a0.326,0.326,0,0,0-.267.089l-0.019.028a0.147,0.147,0,0,0-.014.075,0.367,0.367,0,0,0,.028.127q0.281,0.662.611,1.274t0.574,0.989q0.245,0.375.5,0.708c0.169,0.221.281,0.364,0.335,0.426s0.1,0.109.129,0.141l0.117,0.112a2.827,2.827,0,0,0,.33.27q0.219,0.156.483,0.309a2.605,2.605,0,0,0,.616.248,2.153,2.153,0,0,0,.685.078h0.538a0.373,0.373,0,0,0,.249-0.1l0.019-.023a0.344,0.344,0,0,0,.035-0.087,0.515,0.515,0,0,0,.016-0.128,1.582,1.582,0,0,1,.03-0.364,0.978,0.978,0,0,1,.08-0.243,0.6,0.6,0,0,1,.1-0.138,0.345,0.345,0,0,1,.08-0.068,0.222,0.222,0,0,1,.037-0.017,0.3,0.3,0,0,1,.265.073,1.549,1.549,0,0,1,.286.272c0.089,0.107.2,0.229,0.321,0.363a2.227,2.227,0,0,0,.328.3l0.093,0.056a1.117,1.117,0,0,0,.244.1,0.535,0.535,0,0,0,.262.024l1.2-.019a0.539,0.539,0,0,0,.276-0.059,0.234,0.234,0,0,0,.118-0.129,0.367,0.367,0,0,0,0-.159A0.57,0.57,0,0,0,559.452,543.57Z" transform="translate(-550.5 -538.938)"/>
    </g>
  </g>
</svg>
